<?xml version="1.0" encoding="UTF-8" standalone="no"?>
<!DOCTYPE svg PUBLIC "-//W3C//DTD SVG 1.1//EN" "http://www.w3.org/Graphics/SVG/1.1/DTD/svg11.dtd">
<!-- Created with Vectornator (http://vectornator.io/) -->
<svg height="100%" stroke-miterlimit="10" style="fill-rule:nonzero;clip-rule:evenodd;stroke-linecap:round;stroke-linejoin:round;" version="1.1" viewBox="0 0 512.39 200" width="100%" xml:space="preserve" xmlns="http://www.w3.org/2000/svg" xmlns:vectornator="http://vectornator.io" xmlns:xlink="http://www.w3.org/1999/xlink">
<defs/>
<g id="Ebene-1" vectornator:layerName="Ebene 1">
<g opacity="1">
<path d="M244.732 120.179C244.329 138.055 241.464 181.105 223.333 186.322" fill="none" stroke="#000000" stroke-linecap="round" stroke-linejoin="miter" stroke-width="6"/>
<g fill="#000000" stroke="none">
<path d="M264.965 137.384L247.079 115.291L244.772 112.441L242.436 115.267L224.322 137.173C223.266 138.45 223.446 140.341 224.722 141.397C225.999 142.453 227.89 142.274 228.946 140.997L247.06 119.09L242.416 119.066L260.302 141.159C261.345 142.447 263.234 142.646 264.521 141.603C265.809 140.561 266.008 138.672 264.965 137.384Z" fill="#000000"/>
</g>
</g>
<g opacity="1">
<path d="M281.501 79.5326C283.375 63.0284 285.168 25.2 263.156 20.1674" fill="none" stroke="#000000" stroke-linecap="round" stroke-linejoin="miter" stroke-width="6"/>
<g fill="#000000" stroke="none">
<path d="M263.745 59.7818L278.523 84.0634L280.429 87.1955L283.122 84.7067L303.996 65.4126C305.213 64.288 305.288 62.39 304.163 61.1733C303.039 59.9565 301.141 59.8819 299.924 61.0065L279.049 80.3006L283.648 80.9439L268.87 56.6624C268.009 55.247 266.163 54.798 264.748 55.6594C263.332 56.5208 262.883 58.3665 263.745 59.7818Z" fill="#000000"/>
</g>
</g>
<g opacity="1">
<path d="M330.873 119.964C332.163 124.701 334.198 131.148 337.13 137.725C343.169 151.272 353.016 165.369 368.002 166.221" fill="none" stroke="#000000" stroke-linecap="round" stroke-linejoin="miter" stroke-width="6"/>
<g fill="#000000" stroke="none">
<path d="M354.602 131.895L331.997 114.66L329.082 112.437L327.48 115.735L315.062 141.305C314.339 142.795 314.96 144.59 316.45 145.314C317.941 146.038 319.736 145.416 320.46 143.926L332.877 118.356L328.359 119.431L350.964 136.666C352.281 137.671 354.164 137.417 355.168 136.1C356.173 134.782 355.919 132.9 354.602 131.895Z" fill="#000000"/>
</g>
</g>
<g opacity="1">
<path d="M373.823 79.865C368.71 63.0932 359.477 22.6757 385.813 13.678" fill="none" stroke="#000000" stroke-linecap="round" stroke-linejoin="miter" stroke-width="6"/>
<g fill="#000000" stroke="none">
<path d="M349.117 70.1184L373.181 85.2488L376.285 87.2005L377.584 83.7714L387.649 57.1879C388.236 55.6384 387.455 53.9067 385.906 53.32C384.356 52.7333 382.625 53.5138 382.038 55.0633L371.972 81.6468L376.375 80.1694L352.311 65.039C350.908 64.1571 349.056 64.5792 348.174 65.9818C347.292 67.3845 347.715 69.2365 349.117 70.1184Z" fill="#000000"/>
</g>
</g>
</g>
</svg>
