<?xml version="1.0" encoding="UTF-8" standalone="no"?>
<!DOCTYPE svg PUBLIC "-//W3C//DTD SVG 1.1//EN" "http://www.w3.org/Graphics/SVG/1.1/DTD/svg11.dtd">
<!-- Created with Vectornator (http://vectornator.io/) -->
<svg height="100%" stroke-miterlimit="10" style="fill-rule:nonzero;clip-rule:evenodd;stroke-linecap:round;stroke-linejoin:round;" version="1.1" viewBox="0 0 285 125" width="100%" xml:space="preserve" xmlns="http://www.w3.org/2000/svg" xmlns:vectornator="http://vectornator.io" xmlns:xlink="http://www.w3.org/1999/xlink">
<defs>
<filter color-interpolation-filters="sRGB" filterUnits="userSpaceOnUse" height="57.4071" id="Filter" width="33.481" x="126.439" y="65.3113">
<feGaussianBlur in="SourceGraphic" result="Blur" stdDeviation="0.327268"/>
</filter>
<filter color-interpolation-filters="sRGB" filterUnits="userSpaceOnUse" height="47.7105" id="Filter_2" width="32.7218" x="139.364" y="6.09626">
<feGaussianBlur in="SourceGraphic" result="Blur" stdDeviation="0.327268"/>
</filter>
<filter color-interpolation-filters="sRGB" filterUnits="userSpaceOnUse" height="51.9105" id="Filter_3" width="36.4004" x="167.365" y="66.0711">
<feGaussianBlur in="SourceGraphic" result="Blur" stdDeviation="0.327268"/>
</filter>
<filter color-interpolation-filters="sRGB" filterUnits="userSpaceOnUse" height="55.4444" id="Filter_4" width="35.9181" x="187.243" y="2.28156">
<feGaussianBlur in="SourceGraphic" result="Blur" stdDeviation="0.327268"/>
</filter>
</defs>
<g id="Ebene-1" vectornator:layerName="Ebene 1">
<g filter="url(#Filter)" opacity="1" vectornator:blur="0.654535">
<path d="M142.234 73.9513C144.456 86.6116 148.257 118.743 129.871 119.9" fill="none" stroke="#ffffff" stroke-linecap="round" stroke-linejoin="miter" stroke-width="4"/>
<g fill="#ffffff" stroke="none">
<path d="M157.735 82.5097L143.12 70.4467L141.234 68.8907L140.083 71.0467L131.153 87.761C130.632 88.7352 131 89.947 131.974 90.4675C132.948 90.988 134.16 90.6202 134.681 89.6459L143.611 72.9317L140.573 73.5317L155.188 85.5946C156.04 86.2977 157.301 86.1771 158.004 85.3252C158.707 84.4734 158.587 83.2128 157.735 82.5097Z" fill="#ffffff"/>
</g>
</g>
<g filter="url(#Filter_2)" opacity="1" vectornator:blur="0.654535">
<path d="M155.024 45.8347C156.271 35.3071 157.475 11.9093 144.097 8.91443" fill="none" stroke="#ffffff" stroke-linecap="round" stroke-linejoin="miter" stroke-width="4"/>
<g fill="#ffffff" stroke="none">
<path d="M143.256 32.6044L153.022 48.8445L154.282 50.9394L156.086 49.2898L170.07 36.5016C170.886 35.7562 170.942 34.4911 170.197 33.676C169.451 32.8608 168.186 32.8043 167.371 33.5497L153.386 46.3379L156.45 46.7832L146.684 30.5431C146.115 29.5965 144.886 29.2905 143.94 29.8598C142.993 30.429 142.687 31.6578 143.256 32.6044Z" fill="#ffffff"/>
</g>
</g>
<g filter="url(#Filter_3)" opacity="1" vectornator:blur="0.654535">
<path d="M182.553 74.048C182.781 77.9172 183.379 83.4708 184.914 88.951C187.83 99.3634 187.312 116.656 200.947 115.06" fill="none" stroke="#ffffff" stroke-linecap="round" stroke-linejoin="miter" stroke-width="4"/>
<g fill="#ffffff" stroke="none">
<path d="M196.377 85.1119L184.02 70.7445L182.427 68.8912L180.926 70.8206L169.29 85.7777C168.611 86.6495 168.768 87.906 169.64 88.5843C170.512 89.2625 171.768 89.1056 172.447 88.2338L184.083 73.2767L180.988 73.3528L193.345 87.7202C194.065 88.5576 195.328 88.6526 196.165 87.9324C197.002 87.2121 197.097 85.9494 196.377 85.1119Z" fill="#ffffff"/>
</g>
</g>
<g filter="url(#Filter_4)" opacity="1" vectornator:blur="0.654535">
<path d="M207.245 46.2568C202.613 35.4433 193.582 9.32634 212.253 5.09973" fill="none" stroke="#ffffff" stroke-linecap="round" stroke-linejoin="miter" stroke-width="4"/>
<g fill="#ffffff" stroke="none">
<path d="M190.168 41.5783L207.207 49.8713L209.405 50.941L210.019 48.5748L214.773 30.2307C215.05 29.1615 214.408 28.0701 213.339 27.7929C212.27 27.5158 211.178 28.1579 210.901 29.2271L206.147 47.5712L208.958 46.2747L191.919 37.9817C190.925 37.4983 189.728 37.9116 189.245 38.9048C188.762 39.8979 189.175 41.0949 190.168 41.5783Z" fill="#ffffff"/>
</g>
</g>
</g>
</svg>
